# AST/ASF file generated using VICON BodyLanguage
# -----------------------------------------------
:version 1.10
:name VICON
:units
  mass 1.0
  length 0.45
  angle deg
:documentation
   .ast/.asf automatically generated from VICON data using
   VICON BodyBuilder and BodyLanguage model FoxedUp or BRILLIANT.MOD
:root
   order TX TY TZ RX RY RZ
   axis XYZ
   position 0 0 0  
   orientation 0 0 0 
:bonedata
  begin
     id 1 
     name lhipjoint
     direction 0.677091 -0.635792 0.370561 
     length 2.74323 
     axis 0 0 0  XYZ
  end
  begin
     id 2 
     name lfemur
     direction 0.34202 -0.939693 0  
     length 7.44995  
     axis 0 0 20  XYZ
    dof rx ry rz
    limits (-160.0 20.0)
           (-70.0 70.0)
           (-60.0 70.0)
  end
  begin
     id 3 
     name ltibia
     direction 0.34202 -0.939693 0   
     length 7.34467   
     axis 0 0 20   XYZ
    dof rx
    limits (-10.0 170.0)
  end
  begin
     id 4 
     name lfoot
     direction 0.101953 -0.280114 0.954537   
     length 1.72105   
     axis -90 7.62852e-016 20   XYZ
    dof rx rz
    limits (-45.0 90.0)
           (-70.0 20.0)
  end
  begin
     id 5 
     name ltoes
     direction 1.53537e-011 -4.21915e-011 1   
     length 0.865872   
     axis -90 7.62852e-016 20   XYZ
    dof rx
    limits (-90.0 20.0)
  end
  begin
     id 6 
     name rhipjoint
     direction -0.695735 -0.620586 0.361699   
     length 2.81045  
     axis 0 0 0  XYZ 
  end
  begin
     id 7 
     name rfemur
     direction -0.34202 -0.939693 0   
     length 7.29387   
     axis 0 0 -20   XYZ
    dof rx ry rz
    limits (-160.0 20.0)
           (-70.0 70.0)
           (-70.0 60.0)
  end
  begin
     id 8 
     name rtibia
     direction -0.34202 -0.939693 0   
     length 7.44935   
     axis 0 0 -20   XYZ
    dof rx
    limits (-10.0 170.0)
 end
 begin
     id 9 
     name rfoot
     direction -0.104163 -0.286184 0.952496   
     length 1.77731  
     axis -90 -7.62852e-016 -20   XYZ
    dof rx rz
    limits (-45.0 90.0)
           (-20.0 70.0)
  end
  begin
     id 10 
     name rtoes
     direction -1.5355e-011 -4.21888e-011 1   
     length 0.892424   
     axis -90 -7.62852e-016 -20   XYZ
    dof rx
    limits (-90.0 20.0)
  end
  begin
     id 11 
     name lowerback
     direction 0.0100202 0.997226 -0.0737589   
     length 2.16892   
     axis 0 0 0   XYZ
    dof rx ry rz
    limits (-20.0 45.0)
           (-30.0 30.0)
           (-30.0 30.0)
  end
  begin
     id 12 
     name upperback
     direction 0.00432398 0.999988 -0.00215019   
     length 2.17326   
     axis 0 0 0   XYZ
    dof rx ry rz
    limits (-20.0 45.0)
           (-30.0 30.0)
           (-30.0 30.0)
  end
  begin
     id 13 
     name thorax
     direction -0.00195047 0.999485 0.0320434   
     length 2.18139   
     axis 0 0 0   XYZ
    dof rx ry rz
    limits (-20.0 45.0)
           (-30.0 30.0)
           (-30.0 30.0)
  end
  begin
     id 14 
     name lowerneck
     direction 0.00782762 0.986241 0.165128   
     length 1.88415   
     axis 0 0 0   XYZ
    dof rx ry rz
    limits (-20.0 45.0)
           (-30.0 30.0)
           (-30.0 30.0)
  end
  begin
     id 15 
     name upperneck
     direction 0.00988667 0.981098 -0.193258   
     length 1.9242   
     axis 0 0 0   XYZ
    dof rx ry rz
    limits (-20.0 45.0)
           (-30.0 30.0)
           (-30.0 30.0)
  end
  begin
     id 16
     name head
     direction 0.00252199 0.996513 -0.0833958  
     length 1.93887  
     axis 0 0 0   XYZ
    dof rx ry rz
    limits (-20.0 45.0)
           (-30.0 30.0)
           (-30.0 30.0)
  end
  begin
     id 17 
     name lclavicle
     direction 0.929492 0.368193 -0.0218667  
     length 3.5955  
     axis 0 0 0   XYZ
    dof ry rz
    limits (-20.0 10.0)
           (0.0 20.0)
  end
  begin
     id 18 
     name lhumerus
     direction 1 -4.48972e-011 1.41911e-027   
     length 5.2795   
     axis 180 -30 -90   XYZ
    dof rx ry rz
    limits (-60.0 90.0)
           (-90.0 90.0)
           (-90.0 90.0)
  end
  begin
     id 19
     name lradius
     direction 1 -4.48963e-011 7.05772e-027   
     length 3.53504   
     axis 180 -30 -90   XYZ
    dof rx
    limits (-10.0 170.0)
  end
  begin
     id 20
     name lwrist
     direction 1 -4.48957e-011 9.54866e-027   
     length 1.76752   
     axis -7.69462e-015 90 90   XYZ
    dof ry
    limits (-180.0 0.0)
 end
  begin
     id 21 
     name lhand
     direction 1 -4.48979e-011 1.90973e-026   
     length 0.667948   
     axis -1.21857e-014 90 90   XYZ
    dof rx rz
    limits (-90.0 90.0)
           (-45.0 45.0)
  end
  begin
     id 22 
     name lfingers
     direction 1 -4.48987e-011 3.81946e-026   
     length 0.538517   
     axis -2.43714e-014 90 90   XYZ
    dof rx
    limits (0.0 90.0)
  end
  begin
     id 23
     name lthumb
     direction 0.707107 -6.34962e-011 0.707107   
     length 0.773206   
     axis -90 45 2.85299e-015   XYZ
    dof rx rz
    limits (-45.0 45.0)
           (-45.0 45.0)
  end
  begin
     id 24 
     name rclavicle
     direction -0.898763 0.414256 -0.143584   
     length 3.5176  
     axis 0 0 0   XYZ 
    dof ry rz
    limits (-10.0 20.0)
           (-20.0 0.0)
  end
  begin
     id 25 
     name rhumerus
     direction -1 -4.48971e-011 1.129e-027  
     length 5.25035   
     axis 180 30 90   XYZ
    dof rx ry rz
    limits (-90.0 60.0)
           (-90.0 90.0)
           (-90.0 90.0)
  end
  begin
     id 26 
     name rradius
     direction -1 -4.48955e-011 6.34664e-027   
     length 3.58884   
     axis 180 30 90   XYZ
    dof rx
    limits (-10.0 170.0)
  end
  begin
     id 27 
     name rwrist
     direction -1 -4.48966e-011 9.54866e-027   
     length 1.79442   
     axis -7.69462e-015 -90 -90   XYZ
    dof ry
    limits (-180.0 0.0)
  end
  begin
     id 28
     name rhand
     direction -1 -4.48973e-011 1.90973e-026   
     length 0.779235   
     axis -1.21857e-014 -90 -90   XYZ
    dof rx rz
    limits (-90.0 90.0)
           (-45.0 45.0)
  end
  begin
     id 29
     name rfingers
     direction -1 -4.48984e-011 3.81946e-026   
     length 0.62824   
     axis -2.43714e-014 -90 -90   XYZ
    dof rx
    limits (0.0 90.0)
  end
  begin
     id 30
     name rthumb
     direction -0.707107 -6.34968e-011 0.707107   
     length 0.90203   
     axis -90 -45 -2.85299e-015   XYZ
    dof rx rz
    limits (-45.0 45.0)
           (-45.0 45.0)
  end
:hierarchy
  begin
    root lhipjoint rhipjoint lowerback
    lhipjoint lfemur
    lfemur ltibia
    ltibia lfoot
    lfoot ltoes
    rhipjoint rfemur
    rfemur rtibia
    rtibia rfoot
    rfoot rtoes
    lowerback upperback
    upperback thorax
    thorax lowerneck lclavicle rclavicle
    lowerneck upperneck
    upperneck head
    lclavicle lhumerus
    lhumerus lradius
    lradius lwrist
    lwrist lhand lthumb
    lhand lfingers
    rclavicle rhumerus
    rhumerus rradius
    rradius rwrist
    rwrist rhand rthumb
    rhand rfingers
  end

#!OML:ASF I:\Random Stuff\random\construction\7_22_03\Session 2\subj1.ASF
:FULLY-SPECIFIED
:DEGREES
163
root 6.2656 17.6212 -10.4549 9.13371 -7.20375 -2.34909
lowerback 6.98462 -1.18543 -2.44796
upperback 0.107507 -1.73373 1.09561
thorax -3.69918 -0.80838 2.68293
lowerneck -18.5863 -6.69346 -5.94583
upperneck 37.7996 -11.597 7.85307
head 18.157 -4.51785 2.21868
rclavicle 3.63279e-014 -2.98177e-014
rhumerus -31.9594 -2.53999 -71.1495
rradius 74.1207
rwrist 12.4257
rhand -22.3417 19.0531
rfingers 7.12502
rthumb 4.07884 -10.8876
lclavicle 3.63279e-014 -2.98177e-014
lhumerus -31.3617 -12.4163 91.781
lradius 39.8208
lwrist 31.2598
lhand -21.1328 58.9977
lfingers 7.12502
lthumb 5.24617 448.913
rfemur -17.3684 2.51173 16.0029
rtibia 2.70347e-014
rfoot 4.72567 -16.6033
rtoes 1.35772
lfemur -5.57201 -4.79263 -15.274
ltibia 16.0962
lfoot -16.9687 12.9338
ltoes -27.4415
164
root 6.16761 17.6133 -10.3599 8.86591 -7.09138 -2.26605
lowerback 7.15095 -1.31514 -1.89433
upperback 0.119283 -1.85815 1.25597
thorax -3.78438 -0.877497 2.5548
lowerneck -18.4679 -6.60203 -5.8688
upperneck 37.8114 -11.4376 7.72089
head 18.0922 -4.46458 2.18313
rclavicle 1.88348e-014 2.40529e-014
rhumerus -32.9168 -1.54264 -71.3573
rradius 75.279
rwrist 10.916
rhand -22.4046 18.6216
rfingers 7.12502
rthumb 4.01808 -11.3202
lclavicle 1.88348e-014 2.40529e-014
lhumerus -31.2904 -11.4727 91.6496
lradius 39.8458
lwrist 30.9486
lhand -20.7883 58.7921
lfingers 7.12502
lthumb 5.57877 448.699
rfemur -16.8403 2.48139 16.2145
rtibia -5.88403e-014
rfoot 5.37586 -16.3012
rtoes 0.738671
lfemur -4.6238 -5.14354 -15.1271
ltibia 15.5132
lfoot -16.7962 13.2915
ltoes -27.987
165
root 6.07272 17.5992 -10.2518 8.44163 -7.15696 -2.33139
lowerback 7.3529 -1.42683 -1.16117
upperback 0.191491 -1.94041 1.44475
thorax -3.83563 -0.929958 2.35156
lowerneck -18.3682 -6.45511 -6.11973
upperneck 37.9555 -11.2414 7.94758
head 18.1727 -4.39347 2.38409
rclavicle -1.79652e-014 -4.17448e-015
rhumerus -33.9001 -0.348224 -71.5874
rradius 76.4835
rwrist 9.04203
rhand -22.8144 18.7358
rfingers 7.12502
rthumb 3.62234 -11.2132
lclavicle -1.79652e-014 -4.17448e-015
lhumerus -31.2366 -10.0622 91.4529
lradius 39.7091
lwrist 30.5324
lhand -20.5344 58.8532
lfingers 7.12502
lthumb 5.82387 448.753
rfemur -16.1146 2.65644 16.5555
rtibia 4.29375e-014
rfoot 5.97278 -15.8972
rtoes 0.689307
lfemur -3.51602 -5.44672 -14.926
ltibia 15.1474
lfoot -16.6179 13.9722
ltoes -29.5313
166
root 5.9652 17.5924 -10.1588 8.23439 -7.17115 -2.28959
lowerback 7.50919 -1.54291 -0.720855
upperback 0.152858 -2.04921 1.65092
thorax -3.96609 -0.988553 2.33548
lowerneck -18.2746 -6.34332 -6.2148
upperneck 38.1191 -11.0948 8.01481
head 18.2405 -4.34101 2.47306
rclavicle 2.20403e-014 -2.25621e-014
rhumerus -34.8912 0.918843 -71.8263
rradius 77.4488
rwrist 7.29854
rhand -23.7218 19.4363
rfingers 7.12502
rthumb 2.74608 -10.5258
lclavicle 2.20403e-014 -2.25621e-014
lhumerus -31.284 -8.52735 91.2219
lradius 39.5526
lwrist 30.2375
lhand -20.4479 58.9643
lfingers 7.12502
lthumb 5.90738 448.862
rfemur -18.255 2.86041 16.9661
rtibia 5.05376
rfoot 4.14988 -15.9096
rtoes 1.07819
lfemur -2.83189 -5.376 -14.7059
ltibia 14.9617
lfoot -16.4093 14.1824
ltoes -30.6989
167
root 5.85274 17.5886 -10.0628 8.09293 -7.21895 -2.21849
lowerback 7.5412 -1.6201 -0.395446
upperback 0.122318 -2.1148 1.86377
thorax -4.0167 -1.0248 2.38237
lowerneck -18.229 -6.24243 -6.47382
upperneck 38.3277 -10.9868 8.2671
head 18.3867 -4.3011 2.67135
rclavicle -2.00897e-014 1.03865e-014
rhumerus -35.8598 1.82817 -72.1045
rradius 78.4742
rwrist 6.42141
rhand -24.8649 20.1024
rfingers 7.12502
rthumb 1.6421 -9.87107
lclavicle -2.00897e-014 1.03865e-014
lhumerus -31.3373 -6.98732 91.0143
lradius 39.369
lwrist 30.1776
lhand -20.4148 58.9963
lfingers 7.12502
lthumb 5.93931 448.893
rfemur -18.9139 3.03226 17.2409
rtibia 7.0875
rfoot 3.64413 -15.947
rtoes 1.37856
lfemur -2.27439 -5.13441 -14.4869
ltibia 14.9165
lfoot -16.1253 14.2015
ltoes -31.7994
168
root 5.73232 17.59 -9.96902 8.05636 -7.21505 -2.16766
lowerback 7.48883 -1.67851 -0.127446
upperback 0.0558248 -2.15985 2.08765
thorax -4.05588 -1.04975 2.46879
lowerneck -18.1507 -6.21389 -6.48249
upperneck 38.5257 -11.0004 8.31263
head 18.4906 -4.30163 2.70146
rclavicle -4.14963e-015 -3.57812e-015
rhumerus -36.9143 2.48745 -72.421
rradius 79.5369
rwrist 5.87738
rhand -26.339 20.9013
rfingers 7.12502
rthumb 0.218297 -9.07834
lclavicle -4.14963e-015 -3.57812e-015
lhumerus -31.4103 -5.41454 90.8111
lradius 39.1738
lwrist 30.2632
lhand -20.4856 59.1281
lfingers 7.12502
lthumb 5.87099 449.027
rfemur -19.1838 3.1572 17.5828
rtibia 8.31293
rfoot 3.14866 -16.0256
rtoes 1.03776
lfemur -1.95756 -4.60101 -14.1518
ltibia 15.0636
lfoot -15.7161 13.8254
ltoes -32.9602
169
root 5.60786 17.5976 -9.87656 8.08361 -7.19816 -2.03665
lowerback 7.36462 -1.76159 0.0832511
upperback -0.0361468 -2.24614 2.24241
thorax -4.08009 -1.09477 2.51794
lowerneck -18.1073 -6.15915 -6.38002
upperneck 38.791 -11.0096 8.32099
head 18.6312 -4.28736 2.69709
rclavicle 5.51627e-014 4.17448e-015
rhumerus -37.9611 3.08832 -72.8592
rradius 80.5067
rwrist 5.24136
rhand -27.87 22.1114
rfingers 7.12502
rthumb -1.26039 -7.86467
lclavicle 5.51627e-014 4.17448e-015
lhumerus -31.5416 -3.84372 90.5177
lradius 38.983
lwrist 30.4014
lhand -20.69 59.2148
lfingers 7.12502
lthumb 5.67362 449.119
rfemur -19.2623 3.25354 17.8574
rtibia 9.08245
rfoot 2.69785 -16.1145
rtoes 0.330311
lfemur -1.87129 -3.99817 -13.8724
ltibia 15.4186
lfoot -15.2568 13.3556
ltoes -33.7225
